<mxfile host="app.diagrams.net" modified="2023-08-18T11:35:44.997Z" agent="Mozilla/5.0 (Windows NT 10.0; Win64; x64) AppleWebKit/537.36 (KHTML, like Gecko) Chrome/115.0.0.0 Safari/537.36 Edg/115.0.1901.203" etag="0LJEyU1tmr4l5FC8P4Jm" version="21.6.8" type="device">
  <diagram name="Seite-1" id="IP58UousXiF4tvIA4HpZ">
    <mxGraphModel dx="951" dy="626" grid="1" gridSize="10" guides="1" tooltips="1" connect="1" arrows="1" fold="1" page="1" pageScale="1" pageWidth="827" pageHeight="1169" math="0" shadow="0">
      <root>
        <mxCell id="0" />
        <mxCell id="1" parent="0" />
        <mxCell id="xAKTQtqkVo-7MEAtnJQO-44" value="" style="ellipse;whiteSpace=wrap;html=1;aspect=fixed;" vertex="1" parent="1">
          <mxGeometry x="385" y="655" width="190" height="190" as="geometry" />
        </mxCell>
        <mxCell id="xAKTQtqkVo-7MEAtnJQO-11" style="edgeStyle=orthogonalEdgeStyle;rounded=0;orthogonalLoop=1;jettySize=auto;html=1;" edge="1" parent="1" source="xAKTQtqkVo-7MEAtnJQO-2" target="xAKTQtqkVo-7MEAtnJQO-4">
          <mxGeometry relative="1" as="geometry" />
        </mxCell>
        <mxCell id="xAKTQtqkVo-7MEAtnJQO-12" style="edgeStyle=orthogonalEdgeStyle;rounded=0;orthogonalLoop=1;jettySize=auto;html=1;" edge="1" parent="1" source="xAKTQtqkVo-7MEAtnJQO-2" target="xAKTQtqkVo-7MEAtnJQO-3">
          <mxGeometry relative="1" as="geometry" />
        </mxCell>
        <mxCell id="xAKTQtqkVo-7MEAtnJQO-2" value="Integration" style="rounded=1;whiteSpace=wrap;html=1;fillColor=#66FF66;" vertex="1" parent="1">
          <mxGeometry x="500" y="40" width="100" height="40" as="geometry" />
        </mxCell>
        <mxCell id="xAKTQtqkVo-7MEAtnJQO-13" style="edgeStyle=orthogonalEdgeStyle;rounded=0;orthogonalLoop=1;jettySize=auto;html=1;exitX=0;exitY=0.5;exitDx=0;exitDy=0;entryX=0.75;entryY=0;entryDx=0;entryDy=0;" edge="1" parent="1" source="xAKTQtqkVo-7MEAtnJQO-3" target="xAKTQtqkVo-7MEAtnJQO-7">
          <mxGeometry relative="1" as="geometry" />
        </mxCell>
        <mxCell id="xAKTQtqkVo-7MEAtnJQO-14" style="edgeStyle=orthogonalEdgeStyle;rounded=0;orthogonalLoop=1;jettySize=auto;html=1;exitX=1;exitY=0.5;exitDx=0;exitDy=0;" edge="1" parent="1" source="xAKTQtqkVo-7MEAtnJQO-3" target="xAKTQtqkVo-7MEAtnJQO-6">
          <mxGeometry relative="1" as="geometry" />
        </mxCell>
        <mxCell id="xAKTQtqkVo-7MEAtnJQO-3" value="Integration" style="rounded=1;whiteSpace=wrap;html=1;fillColor=#66FF66;" vertex="1" parent="1">
          <mxGeometry x="600" y="130" width="100" height="40" as="geometry" />
        </mxCell>
        <mxCell id="xAKTQtqkVo-7MEAtnJQO-15" style="edgeStyle=orthogonalEdgeStyle;rounded=0;orthogonalLoop=1;jettySize=auto;html=1;exitX=0;exitY=0.5;exitDx=0;exitDy=0;" edge="1" parent="1" source="xAKTQtqkVo-7MEAtnJQO-4" target="xAKTQtqkVo-7MEAtnJQO-5">
          <mxGeometry relative="1" as="geometry" />
        </mxCell>
        <mxCell id="xAKTQtqkVo-7MEAtnJQO-16" style="edgeStyle=orthogonalEdgeStyle;rounded=0;orthogonalLoop=1;jettySize=auto;html=1;exitX=1;exitY=0.5;exitDx=0;exitDy=0;entryX=0.25;entryY=0;entryDx=0;entryDy=0;" edge="1" parent="1" source="xAKTQtqkVo-7MEAtnJQO-4" target="xAKTQtqkVo-7MEAtnJQO-7">
          <mxGeometry relative="1" as="geometry" />
        </mxCell>
        <mxCell id="xAKTQtqkVo-7MEAtnJQO-4" value="Integration" style="rounded=1;whiteSpace=wrap;html=1;fillColor=#66FF66;" vertex="1" parent="1">
          <mxGeometry x="400" y="130" width="100" height="40" as="geometry" />
        </mxCell>
        <mxCell id="xAKTQtqkVo-7MEAtnJQO-19" style="edgeStyle=orthogonalEdgeStyle;rounded=0;orthogonalLoop=1;jettySize=auto;html=1;entryX=0;entryY=0.5;entryDx=0;entryDy=0;" edge="1" parent="1" source="xAKTQtqkVo-7MEAtnJQO-5" target="xAKTQtqkVo-7MEAtnJQO-8">
          <mxGeometry relative="1" as="geometry" />
        </mxCell>
        <mxCell id="xAKTQtqkVo-7MEAtnJQO-5" value="Operation" style="rounded=0;whiteSpace=wrap;html=1;fillColor=#FFCCCC;" vertex="1" parent="1">
          <mxGeometry x="310" y="220" width="100" height="40" as="geometry" />
        </mxCell>
        <mxCell id="xAKTQtqkVo-7MEAtnJQO-20" style="edgeStyle=orthogonalEdgeStyle;rounded=0;orthogonalLoop=1;jettySize=auto;html=1;exitX=0.5;exitY=1;exitDx=0;exitDy=0;entryX=1;entryY=0.5;entryDx=0;entryDy=0;" edge="1" parent="1" source="xAKTQtqkVo-7MEAtnJQO-6" target="xAKTQtqkVo-7MEAtnJQO-9">
          <mxGeometry relative="1" as="geometry" />
        </mxCell>
        <mxCell id="xAKTQtqkVo-7MEAtnJQO-23" style="edgeStyle=orthogonalEdgeStyle;rounded=0;orthogonalLoop=1;jettySize=auto;html=1;exitX=0.702;exitY=1.013;exitDx=0;exitDy=0;exitPerimeter=0;entryX=0.938;entryY=-0.004;entryDx=0;entryDy=0;entryPerimeter=0;" edge="1" parent="1" source="xAKTQtqkVo-7MEAtnJQO-6" target="xAKTQtqkVo-7MEAtnJQO-10">
          <mxGeometry relative="1" as="geometry">
            <mxPoint x="759" y="396" as="targetPoint" />
          </mxGeometry>
        </mxCell>
        <mxCell id="xAKTQtqkVo-7MEAtnJQO-6" value="Operation" style="rounded=0;whiteSpace=wrap;html=1;fillColor=#FFCCCC;" vertex="1" parent="1">
          <mxGeometry x="690" y="220" width="100" height="40" as="geometry" />
        </mxCell>
        <mxCell id="xAKTQtqkVo-7MEAtnJQO-17" style="edgeStyle=orthogonalEdgeStyle;rounded=0;orthogonalLoop=1;jettySize=auto;html=1;entryX=1;entryY=0.5;entryDx=0;entryDy=0;" edge="1" parent="1" source="xAKTQtqkVo-7MEAtnJQO-7" target="xAKTQtqkVo-7MEAtnJQO-8">
          <mxGeometry relative="1" as="geometry" />
        </mxCell>
        <mxCell id="xAKTQtqkVo-7MEAtnJQO-18" style="edgeStyle=orthogonalEdgeStyle;rounded=0;orthogonalLoop=1;jettySize=auto;html=1;entryX=0;entryY=0.5;entryDx=0;entryDy=0;" edge="1" parent="1" source="xAKTQtqkVo-7MEAtnJQO-7" target="xAKTQtqkVo-7MEAtnJQO-9">
          <mxGeometry relative="1" as="geometry" />
        </mxCell>
        <mxCell id="xAKTQtqkVo-7MEAtnJQO-21" style="edgeStyle=orthogonalEdgeStyle;rounded=0;orthogonalLoop=1;jettySize=auto;html=1;" edge="1" parent="1" source="xAKTQtqkVo-7MEAtnJQO-7" target="xAKTQtqkVo-7MEAtnJQO-10">
          <mxGeometry relative="1" as="geometry" />
        </mxCell>
        <mxCell id="xAKTQtqkVo-7MEAtnJQO-7" value="Operation" style="rounded=0;whiteSpace=wrap;html=1;fillColor=#FFCCCC;" vertex="1" parent="1">
          <mxGeometry x="500" y="220" width="100" height="40" as="geometry" />
        </mxCell>
        <mxCell id="xAKTQtqkVo-7MEAtnJQO-8" value="Data" style="ellipse;whiteSpace=wrap;html=1;aspect=fixed;fillColor=#DAE8FC;" vertex="1" parent="1">
          <mxGeometry x="400" y="310" width="40" height="40" as="geometry" />
        </mxCell>
        <mxCell id="xAKTQtqkVo-7MEAtnJQO-9" value="Data" style="ellipse;whiteSpace=wrap;html=1;aspect=fixed;fillColor=#DAE8FC;" vertex="1" parent="1">
          <mxGeometry x="660" y="305" width="40" height="40" as="geometry" />
        </mxCell>
        <mxCell id="xAKTQtqkVo-7MEAtnJQO-10" value="API/Frameworks" style="rounded=0;whiteSpace=wrap;html=1;fillColor=#000000;fontColor=#FFFFFF;" vertex="1" parent="1">
          <mxGeometry x="310" y="400" width="480" height="40" as="geometry" />
        </mxCell>
        <mxCell id="xAKTQtqkVo-7MEAtnJQO-25" value="I" style="text;html=1;strokeColor=none;fillColor=none;align=center;verticalAlign=middle;whiteSpace=wrap;rounded=0;fontSize=30;" vertex="1" parent="1">
          <mxGeometry x="220" y="100" width="60" height="30" as="geometry" />
        </mxCell>
        <mxCell id="xAKTQtqkVo-7MEAtnJQO-26" value="O" style="text;html=1;strokeColor=none;fillColor=none;align=center;verticalAlign=middle;whiteSpace=wrap;rounded=0;fontSize=30;" vertex="1" parent="1">
          <mxGeometry x="220" y="225" width="60" height="30" as="geometry" />
        </mxCell>
        <mxCell id="xAKTQtqkVo-7MEAtnJQO-27" value="D" style="text;html=1;strokeColor=none;fillColor=none;align=center;verticalAlign=middle;whiteSpace=wrap;rounded=0;fontSize=30;" vertex="1" parent="1">
          <mxGeometry x="220" y="315" width="60" height="30" as="geometry" />
        </mxCell>
        <mxCell id="xAKTQtqkVo-7MEAtnJQO-28" value="A" style="text;html=1;strokeColor=none;fillColor=none;align=center;verticalAlign=middle;whiteSpace=wrap;rounded=0;fontSize=30;" vertex="1" parent="1">
          <mxGeometry x="220" y="405" width="60" height="30" as="geometry" />
        </mxCell>
        <mxCell id="xAKTQtqkVo-7MEAtnJQO-30" value="" style="endArrow=none;dashed=1;html=1;rounded=0;fontColor=#000000;strokeColor=#B3B3B3;strokeWidth=2;" edge="1" parent="1">
          <mxGeometry width="50" height="50" relative="1" as="geometry">
            <mxPoint x="200" y="190" as="sourcePoint" />
            <mxPoint x="820" y="190" as="targetPoint" />
          </mxGeometry>
        </mxCell>
        <mxCell id="xAKTQtqkVo-7MEAtnJQO-31" value="" style="endArrow=none;dashed=1;html=1;rounded=0;fontColor=#000000;strokeColor=#B3B3B3;strokeWidth=2;" edge="1" parent="1">
          <mxGeometry width="50" height="50" relative="1" as="geometry">
            <mxPoint x="200" y="280" as="sourcePoint" />
            <mxPoint x="820" y="280" as="targetPoint" />
          </mxGeometry>
        </mxCell>
        <mxCell id="xAKTQtqkVo-7MEAtnJQO-32" value="" style="endArrow=none;dashed=1;html=1;rounded=0;fontColor=#000000;strokeColor=#B3B3B3;strokeWidth=2;" edge="1" parent="1">
          <mxGeometry width="50" height="50" relative="1" as="geometry">
            <mxPoint x="200" y="380" as="sourcePoint" />
            <mxPoint x="820" y="380" as="targetPoint" />
          </mxGeometry>
        </mxCell>
        <mxCell id="xAKTQtqkVo-7MEAtnJQO-33" style="edgeStyle=orthogonalEdgeStyle;rounded=0;orthogonalLoop=1;jettySize=auto;html=1;exitX=0.5;exitY=1;exitDx=0;exitDy=0;" edge="1" parent="1" source="xAKTQtqkVo-7MEAtnJQO-5" target="xAKTQtqkVo-7MEAtnJQO-5">
          <mxGeometry relative="1" as="geometry" />
        </mxCell>
        <mxCell id="xAKTQtqkVo-7MEAtnJQO-37" style="edgeStyle=orthogonalEdgeStyle;rounded=0;orthogonalLoop=1;jettySize=auto;html=1;" edge="1" parent="1" source="xAKTQtqkVo-7MEAtnJQO-35" target="xAKTQtqkVo-7MEAtnJQO-36">
          <mxGeometry relative="1" as="geometry">
            <mxPoint x="620" y="850" as="targetPoint" />
          </mxGeometry>
        </mxCell>
        <mxCell id="xAKTQtqkVo-7MEAtnJQO-35" value="Provider" style="ellipse;whiteSpace=wrap;html=1;aspect=fixed;fillColor=#DAE8FC;" vertex="1" parent="1">
          <mxGeometry x="530" y="775" width="60" height="60" as="geometry" />
        </mxCell>
        <mxCell id="xAKTQtqkVo-7MEAtnJQO-36" value="" style="shape=cylinder3;whiteSpace=wrap;html=1;boundedLbl=1;backgroundOutline=1;size=15;" vertex="1" parent="1">
          <mxGeometry x="655" y="780" width="30" height="50" as="geometry" />
        </mxCell>
        <mxCell id="xAKTQtqkVo-7MEAtnJQO-38" value="Domain" style="ellipse;whiteSpace=wrap;html=1;aspect=fixed;fillColor=#FFCCCC;" vertex="1" parent="1">
          <mxGeometry x="450" y="720" width="60" height="60" as="geometry" />
        </mxCell>
        <mxCell id="xAKTQtqkVo-7MEAtnJQO-39" value="Dialog" style="ellipse;whiteSpace=wrap;html=1;aspect=fixed;fillColor=#66DF66;" vertex="1" parent="1">
          <mxGeometry x="540" y="670" width="60" height="60" as="geometry" />
        </mxCell>
        <mxCell id="xAKTQtqkVo-7MEAtnJQO-50" style="edgeStyle=orthogonalEdgeStyle;rounded=0;orthogonalLoop=1;jettySize=auto;html=1;startArrow=none;startFill=0;" edge="1" parent="1" source="xAKTQtqkVo-7MEAtnJQO-40" target="xAKTQtqkVo-7MEAtnJQO-47">
          <mxGeometry relative="1" as="geometry" />
        </mxCell>
        <mxCell id="xAKTQtqkVo-7MEAtnJQO-40" value="Actor" style="shape=umlActor;verticalLabelPosition=bottom;verticalAlign=top;html=1;outlineConnect=0;fontColor=#ffffff;" vertex="1" parent="1">
          <mxGeometry x="290" y="680" width="30" height="60" as="geometry" />
        </mxCell>
        <mxCell id="xAKTQtqkVo-7MEAtnJQO-46" style="edgeStyle=orthogonalEdgeStyle;rounded=0;orthogonalLoop=1;jettySize=auto;html=1;" edge="1" parent="1" source="xAKTQtqkVo-7MEAtnJQO-43" target="xAKTQtqkVo-7MEAtnJQO-45">
          <mxGeometry relative="1" as="geometry" />
        </mxCell>
        <mxCell id="xAKTQtqkVo-7MEAtnJQO-43" value="Provider" style="ellipse;whiteSpace=wrap;html=1;aspect=fixed;fillColor=#DAE8DC;" vertex="1" parent="1">
          <mxGeometry x="414" y="800" width="60" height="60" as="geometry" />
        </mxCell>
        <mxCell id="xAKTQtqkVo-7MEAtnJQO-45" value="" style="ellipse;shape=cloud;whiteSpace=wrap;html=1;" vertex="1" parent="1">
          <mxGeometry x="290" y="805" width="80" height="50" as="geometry" />
        </mxCell>
        <mxCell id="xAKTQtqkVo-7MEAtnJQO-47" value="Dialog" style="ellipse;whiteSpace=wrap;html=1;aspect=fixed;fillColor=#66FF66;" vertex="1" parent="1">
          <mxGeometry x="360" y="680" width="60" height="60" as="geometry" />
        </mxCell>
        <mxCell id="xAKTQtqkVo-7MEAtnJQO-51" style="edgeStyle=orthogonalEdgeStyle;rounded=0;orthogonalLoop=1;jettySize=auto;html=1;startArrow=none;startFill=0;" edge="1" parent="1" source="xAKTQtqkVo-7MEAtnJQO-48" target="xAKTQtqkVo-7MEAtnJQO-39">
          <mxGeometry relative="1" as="geometry" />
        </mxCell>
        <mxCell id="xAKTQtqkVo-7MEAtnJQO-48" value="" style="ellipse;shape=cloud;whiteSpace=wrap;html=1;" vertex="1" parent="1">
          <mxGeometry x="640" y="675" width="80" height="50" as="geometry" />
        </mxCell>
        <mxCell id="xAKTQtqkVo-7MEAtnJQO-52" value="Controller" style="ellipse;whiteSpace=wrap;html=1;aspect=fixed;fillColor=#66AF66;" vertex="1" parent="1">
          <mxGeometry x="450" y="620" width="60" height="60" as="geometry" />
        </mxCell>
        <mxCell id="xAKTQtqkVo-7MEAtnJQO-57" style="edgeStyle=orthogonalEdgeStyle;rounded=0;orthogonalLoop=1;jettySize=auto;html=1;" edge="1" parent="1" source="xAKTQtqkVo-7MEAtnJQO-56" target="xAKTQtqkVo-7MEAtnJQO-52">
          <mxGeometry relative="1" as="geometry" />
        </mxCell>
        <mxCell id="xAKTQtqkVo-7MEAtnJQO-56" value="Entry Point" style="text;html=1;strokeColor=none;fillColor=none;align=center;verticalAlign=middle;whiteSpace=wrap;rounded=0;" vertex="1" parent="1">
          <mxGeometry x="520" y="580" width="60" height="30" as="geometry" />
        </mxCell>
      </root>
    </mxGraphModel>
  </diagram>
</mxfile>
